# xmcd CD database file
#
# Track frame offsets:
#	150
#	36430
#	75827
#	93462
#	112817
#	142992
#	204849
#	260890
#
# Disc length: 4763 seconds
#
# Revision: 0
# Processed by: cddbd v1.5.2PL0 Copyright (c) Steve Scherf et al.
# Submitted via: CDex 1.51
#
DISCID=60129908
DTITLE=Eric Dolphy - 12 Classic Albums Disc Four
DYEAR=1962
DGENRE=Jazz
TTITLE0=Mrs. Parker Of K.C.
TTITLE1=Ode To Charlie Parker
TTITLE2=Far Cry
TTITLE3=Miss Ann
TTITLE4=Left Alone
TTITLE5=Fire Waltz
TTITLE6=Bee Vamp
TTITLE7=The Prophet
EXTD=YEAR: 1962
EXTT0=
EXTT1=
EXTT2=
EXTT3=
EXTT4=
EXTT5=
EXTT6=
EXTT7=
PLAYORDER=
